<svg width="16" height="19" viewBox="0 0 16 19" fill="none" xmlns="http://www.w3.org/2000/svg">
<path d="M13.4124 7.5471L12.666 7.62081L13.4124 7.5471ZM13.8282 11.7576L14.5746 11.6839L13.8282 11.7576ZM13.9532 12.1436L14.5984 11.7613V11.7613L13.9532 12.1436ZM14.8437 13.6465L15.489 13.2642L14.8437 13.6465ZM1.15628 13.6465L0.51105 13.2642L1.15628 13.6465ZM2.04681 12.1436L1.40158 11.7613H1.40158L2.04681 12.1436ZM2.5876 7.5471L3.33397 7.62081L2.5876 7.5471ZM8.75 1C8.75 0.585786 8.41421 0.25 8 0.25C7.58579 0.25 7.25 0.585786 7.25 1H8.75ZM10.6997 15.2581C10.6997 14.8439 10.3639 14.5081 9.94966 14.5081C9.53544 14.5081 9.19966 14.8439 9.19966 15.2581H10.6997ZM6.80034 15.2581C6.80034 14.8439 6.46456 14.5081 6.05034 14.5081C5.63613 14.5081 5.30034 14.8439 5.30034 15.2581H6.80034ZM14.0771 14.5081H1.92286V16.0081H14.0771V14.5081ZM12.666 7.62081L13.0819 11.8314L14.5746 11.6839L14.1588 7.47339L12.666 7.62081ZM13.308 12.526L14.1985 14.0289L15.489 13.2642L14.5984 11.7613L13.308 12.526ZM1.80152 14.0289L2.69204 12.526L1.40158 11.7613L0.51105 13.2642L1.80152 14.0289ZM2.91815 11.8314L3.33397 7.62081L1.84123 7.47339L1.42541 11.6839L2.91815 11.8314ZM2.69204 12.526C2.81822 12.313 2.89411 12.0748 2.91815 11.8314L1.42541 11.6839C1.42218 11.7166 1.41237 11.7431 1.40158 11.7613L2.69204 12.526ZM13.0819 11.8314C13.1059 12.0748 13.1818 12.313 13.308 12.526L14.5984 11.7613C14.5876 11.7431 14.5778 11.7166 14.5746 11.6839L13.0819 11.8314ZM1.92286 14.5081C1.90079 14.5081 1.84046 14.4991 1.78784 14.3884C1.73475 14.2768 1.73581 14.1397 1.80152 14.0289L0.51105 13.2642C0.16858 13.8422 0.185004 14.5108 0.433283 15.0328C0.682038 15.5557 1.20908 16.0081 1.92286 16.0081V14.5081ZM14.0771 16.0081C14.7909 16.0081 15.318 15.5557 15.5667 15.0328C15.815 14.5108 15.8314 13.8422 15.489 13.2642L14.1985 14.0289C14.2642 14.1397 14.2652 14.2768 14.2122 14.3884C14.1595 14.4991 14.0992 14.5081 14.0771 14.5081V16.0081ZM8 2.84677C10.3202 2.84677 12.3903 4.82892 12.666 7.62081L14.1588 7.47339C13.8216 4.05953 11.2296 1.34677 8 1.34677V2.84677ZM8 1.34677C4.77045 1.34677 2.17838 4.05952 1.84123 7.47339L3.33397 7.62081C3.60969 4.82892 5.67984 2.84677 8 2.84677V1.34677ZM7.25 1V2.09677H8.75V1H7.25ZM9.19966 15.2581C9.19966 15.783 9.09101 16.3273 8.8717 16.7117C8.6722 17.0615 8.4091 17.25 8 17.25V18.75C9.05314 18.75 9.76487 18.1733 10.1746 17.4549C10.5646 16.7713 10.6997 15.9446 10.6997 15.2581H9.19966ZM8 17.25C7.5909 17.25 7.3278 17.0615 7.1283 16.7117C6.90899 16.3273 6.80034 15.783 6.80034 15.2581H5.30034C5.30034 15.9446 5.43541 16.7713 5.82537 17.4549C6.23513 18.1733 6.94686 18.75 8 18.75V17.25Z" fill="#8F92A1"/>
</svg>
