<svg width="22" height="22" viewBox="0 0 22 22" fill="none" xmlns="http://www.w3.org/2000/svg">
<path fill-rule="evenodd" clip-rule="evenodd" d="M3.6745 0.916351C2.16452 0.916351 0.914795 2.16429 0.914795 3.67427V18.3622C0.914795 19.8722 2.16449 21.1202 3.6745 21.1202H11.0212C11.7255 21.1202 12.365 20.8406 12.8538 20.3975C13.3426 20.8406 13.9821 21.1202 14.6864 21.1202H18.3607C19.8707 21.1202 21.1186 19.8722 21.1186 18.3622V11.0156C21.1186 9.50558 19.8707 8.26303 18.3607 8.26303H14.6864C14.3647 8.26303 14.0599 8.32828 13.7719 8.43159V3.67427C13.7719 2.16429 12.5312 0.916351 11.0212 0.916351H3.6745ZM3.6745 2.75257H11.0212C11.5457 2.75257 11.9357 3.14981 11.9357 3.67427V18.3622C11.9357 18.8867 11.5457 19.2839 11.0212 19.2839H10.0995V16.526C10.0994 16.019 9.68841 15.608 9.18137 15.6079H5.50893C5.00189 15.608 4.59087 16.019 4.59082 16.526V19.2839H3.6745C3.15003 19.2839 2.75102 18.8867 2.75102 18.3622V3.67427C2.75102 3.14981 3.15001 2.75257 3.6745 2.75257ZM4.59082 4.59059V6.42681H6.42704V4.59059H4.59082ZM8.26326 4.59059V6.42681H10.0995V4.59059H8.26326ZM4.59082 8.26303V10.0992H6.42704V8.26303H4.59082ZM8.26326 8.26303V10.0992H10.0995V8.26303H8.26326ZM14.6864 10.0992H18.3607C18.8852 10.0992 19.2824 10.4911 19.2824 11.0156V18.3622C19.2824 18.8867 18.8852 19.2839 18.3607 19.2839H14.6864C14.162 19.2839 13.7719 18.8867 13.7719 18.3622V11.0156C13.7719 10.4911 14.162 10.0992 14.6864 10.0992ZM4.59082 11.9355V13.7717H6.42704V11.9355H4.59082ZM8.26326 11.9355V13.7717H10.0995V11.9355H8.26326ZM15.6081 11.9355V13.7717H17.4444V11.9355H15.6081ZM15.6081 15.6079V17.4441H17.4444V15.6079H15.6081ZM6.42704 17.4441H8.26326V19.2803H6.42704V17.4441Z" fill="#EEBE41"/>
</svg>
