<svg width="23" height="23" viewBox="0 0 23 23" fill="none" xmlns="http://www.w3.org/2000/svg">
<path d="M11.5 21.1667C16.8388 21.1667 21.1667 16.8387 21.1667 11.5C21.1667 6.16124 16.8388 1.83333 11.5 1.83333M11.5 21.1667C6.16126 21.1667 1.83334 16.8387 1.83334 11.5C1.83334 6.16124 6.16126 1.83333 11.5 1.83333M11.5 21.1667C13.502 21.1667 15.125 16.8387 15.125 11.5C15.125 6.16124 13.502 1.83333 11.5 1.83333M11.5 21.1667C9.49798 21.1667 7.87501 16.8387 7.87501 11.5C7.87501 6.16124 9.49798 1.83333 11.5 1.83333M1.83334 10.2917C7.91865 13.3343 15.0814 13.3343 21.1667 10.2917" stroke="#EEBE41" stroke-width="1.8125"/>
</svg>
