<svg width="16" height="4" viewBox="0 0 16 4" fill="none" xmlns="http://www.w3.org/2000/svg">
<path opacity="0.5" fill-rule="evenodd" clip-rule="evenodd" d="M4.00019 2C4.00019 3.1046 3.10472 4 2.00009 4C0.895472 4 0 3.1046 0 2C0 0.8954 0.895472 0 2.00009 0C3.10472 0 4.00019 0.8954 4.00019 2ZM10.0002 2C10.0002 3.1046 9.10475 4 8.00009 4C6.89544 4 6 3.1046 6 2C6 0.8954 6.89544 0 8.00009 0C9.10475 0 10.0002 0.8954 10.0002 2ZM16.0002 2C16.0002 3.1046 15.1047 4 14.0001 4C12.8954 4 12 3.1046 12 2C12 0.8954 12.8954 0 14.0001 0C15.1047 0 16.0002 0.8954 16.0002 2Z" fill="#8F92A1"/>
</svg>
