<svg width="21" height="22" viewBox="0 0 21 22" fill="none" xmlns="http://www.w3.org/2000/svg">
<path d="M18.7946 18.9402L17.5596 20.2437C17.1101 20.7182 16.4603 20.9485 15.8123 20.863L14.5704 20.6992C6.37878 19.6183 0.436096 12.3594 0.993951 4.1156C1.03223 3.54996 1.3238 3.03184 1.78744 2.70558L2.91669 1.91092C3.63322 1.40669 4.62253 1.57643 5.13001 2.29066L6.65213 4.43291C7.09561 5.05706 7.16727 5.87212 6.8395 6.56408L6.31762 7.66582C6.31762 7.66582 5.265 9.88804 8.42289 13.2214C11.5808 16.5547 13.686 14.888 13.686 14.888L14.2282 14.4589C15.113 13.7584 16.3863 13.8494 17.1625 14.6687L18.7946 16.3915C19.4716 17.1061 19.4716 18.2255 18.7946 18.9402Z" stroke="#6B59CC" stroke-width="1.875" stroke-linecap="round" stroke-linejoin="round"/>
</svg>
