<svg width="10" height="14" viewBox="0 0 10 14" fill="none" xmlns="http://www.w3.org/2000/svg">
<path d="M0.56535 5.1969C0.523466 4.65241 0.953987 4.1875 1.50009 4.1875H8.01046C8.55656 4.1875 8.98708 4.65241 8.9452 5.1969L8.5325 10.5619C8.43481 11.8319 7.37586 12.8125 6.10218 12.8125H3.40837C2.13468 12.8125 1.07573 11.8319 0.978046 10.5619L0.56535 5.1969Z" stroke="white" stroke-width="1.125"/>
<path d="M0.441406 2.3125H9.06641" stroke="white" stroke-width="1.125" stroke-linecap="round" stroke-linejoin="round"/>
<path d="M6.44141 6.625C6.44141 6.31434 6.18957 6.0625 5.87891 6.0625C5.56825 6.0625 5.31641 6.31434 5.31641 6.625H6.44141ZM5.31641 10.375C5.31641 10.6857 5.56825 10.9375 5.87891 10.9375C6.18957 10.9375 6.44141 10.6857 6.44141 10.375H5.31641ZM4.19141 6.625C4.19141 6.31434 3.93957 6.0625 3.62891 6.0625C3.31825 6.0625 3.06641 6.31434 3.06641 6.625H4.19141ZM3.06641 10.375C3.06641 10.6857 3.31825 10.9375 3.62891 10.9375C3.93957 10.9375 4.19141 10.6857 4.19141 10.375H3.06641ZM6.62891 2.125V2.6875H7.19141V2.125H6.62891ZM2.87891 2.125H2.31641V2.6875H2.87891V2.125ZM5.31641 6.625V10.375H6.44141V6.625H5.31641ZM3.06641 6.625V10.375H4.19141V6.625H3.06641ZM3.62891 1.1875H5.87891V0.0625H3.62891V1.1875ZM6.06641 1.375V2.125H7.19141V1.375H6.06641ZM6.62891 1.5625H2.87891V2.6875H6.62891V1.5625ZM3.44141 2.125V1.375H2.31641V2.125H3.44141ZM5.87891 1.1875C5.98246 1.1875 6.06641 1.27145 6.06641 1.375H7.19141C7.19141 0.650126 6.60378 0.0625 5.87891 0.0625V1.1875ZM3.62891 0.0625C2.90403 0.0625 2.31641 0.650126 2.31641 1.375H3.44141C3.44141 1.27145 3.52535 1.1875 3.62891 1.1875V0.0625Z" fill="white"/>
</svg>
