<svg width="7" height="15" viewBox="0 0 7 15" fill="none" xmlns="http://www.w3.org/2000/svg">
<path d="M5.75 9C5.75 8.58579 5.41421 8.25 5 8.25C4.58579 8.25 4.25 8.58579 4.25 9H5.75ZM4.25 14C4.25 14.4142 4.58579 14.75 5 14.75C5.41421 14.75 5.75 14.4142 5.75 14H4.25ZM2.75 9C2.75 8.58579 2.41421 8.25 2 8.25C1.58579 8.25 1.25 8.58579 1.25 9H2.75ZM1.25 14C1.25 14.4142 1.58579 14.75 2 14.75C2.41421 14.75 2.75 14.4142 2.75 14H1.25ZM6 3V3.75H6.75V3H6ZM1 3H0.25V3.75H1V3ZM4.25 9V14H5.75V9H4.25ZM1.25 9V14H2.75V9H1.25ZM2 1.75H5V0.25H2V1.75ZM5.25 2V3H6.75V2H5.25ZM6 2.25H1V3.75H6V2.25ZM1.75 3V2H0.25V3H1.75ZM5 1.75C5.13807 1.75 5.25 1.86193 5.25 2H6.75C6.75 1.0335 5.9665 0.25 5 0.25V1.75ZM2 0.25C1.0335 0.25 0.25 1.0335 0.25 2H1.75C1.75 1.86193 1.86193 1.75 2 1.75V0.25Z" fill="#8F92A1"/>
</svg>
