<svg width="24" height="24" viewBox="0 0 24 24" fill="none" xmlns="http://www.w3.org/2000/svg">
<path d="M5.91005 10.0959C5.8542 9.36988 6.42823 8.75 7.15637 8.75H15.8369C16.565 8.75 17.139 9.36988 17.0832 10.0959L16.5329 17.2493C16.4027 18.9425 14.9907 20.25 13.2925 20.25H9.70074C8.0025 20.25 6.59056 18.9425 6.46031 17.2493L5.91005 10.0959Z" stroke="#8F92A1" stroke-width="1.5"/>
<path d="M5.75 6.25H17.25" stroke="#8F92A1" stroke-width="1.5" stroke-linecap="round" stroke-linejoin="round"/>
<path d="M13.75 12C13.75 11.5858 13.4142 11.25 13 11.25C12.5858 11.25 12.25 11.5858 12.25 12H13.75ZM12.25 17C12.25 17.4142 12.5858 17.75 13 17.75C13.4142 17.75 13.75 17.4142 13.75 17H12.25ZM10.75 12C10.75 11.5858 10.4142 11.25 10 11.25C9.58579 11.25 9.25 11.5858 9.25 12H10.75ZM9.25 17C9.25 17.4142 9.58579 17.75 10 17.75C10.4142 17.75 10.75 17.4142 10.75 17H9.25ZM14 6V6.75H14.75V6H14ZM9 6H8.25V6.75H9V6ZM12.25 12V17H13.75V12H12.25ZM9.25 12V17H10.75V12H9.25ZM10 4.75H13V3.25H10V4.75ZM13.25 5V6H14.75V5H13.25ZM14 5.25H9V6.75H14V5.25ZM9.75 6V5H8.25V6H9.75ZM13 4.75C13.1381 4.75 13.25 4.86193 13.25 5H14.75C14.75 4.0335 13.9665 3.25 13 3.25V4.75ZM10 3.25C9.0335 3.25 8.25 4.0335 8.25 5H9.75C9.75 4.86193 9.86193 4.75 10 4.75V3.25Z" fill="#8F92A1"/>
</svg>
