<svg width="6" height="11" viewBox="0 0 6 11" fill="none" xmlns="http://www.w3.org/2000/svg">
<path d="M4.44141 6.625C4.44141 6.31434 4.18957 6.0625 3.87891 6.0625C3.56825 6.0625 3.31641 6.31434 3.31641 6.625H4.44141ZM3.31641 10.375C3.31641 10.6857 3.56825 10.9375 3.87891 10.9375C4.18957 10.9375 4.44141 10.6857 4.44141 10.375H3.31641ZM2.19141 6.625C2.19141 6.31434 1.93957 6.0625 1.62891 6.0625C1.31825 6.0625 1.06641 6.31434 1.06641 6.625H2.19141ZM1.06641 10.375C1.06641 10.6857 1.31825 10.9375 1.62891 10.9375C1.93957 10.9375 2.19141 10.6857 2.19141 10.375H1.06641ZM4.62891 2.125V2.6875H5.19141V2.125H4.62891ZM0.878906 2.125H0.316406V2.6875H0.878906V2.125ZM3.31641 6.625V10.375H4.44141V6.625H3.31641ZM1.06641 6.625V10.375H2.19141V6.625H1.06641ZM1.62891 1.1875H3.87891V0.0625H1.62891V1.1875ZM4.06641 1.375V2.125H5.19141V1.375H4.06641ZM4.62891 1.5625H0.878906V2.6875H4.62891V1.5625ZM1.44141 2.125V1.375H0.316406V2.125H1.44141ZM3.87891 1.1875C3.98246 1.1875 4.06641 1.27145 4.06641 1.375H5.19141C5.19141 0.650126 4.60378 0.0625 3.87891 0.0625V1.1875ZM1.62891 0.0625C0.904033 0.0625 0.316406 0.650126 0.316406 1.375H1.44141C1.44141 1.27145 1.52535 1.1875 1.62891 1.1875V0.0625Z" fill="white"/>
</svg>
